<?xml version="1.0" standalone="no"?>
<!DOCTYPE svg PUBLIC "-//W3C//DTD SVG 20010904//EN"
 "http://www.w3.org/TR/2001/REC-SVG-20010904/DTD/svg10.dtd">
<svg version="1.0" xmlns="http://www.w3.org/2000/svg"
 width="3751.000000pt" height="3750.000000pt" viewBox="0 0 3751.000000 3750.000000"
 preserveAspectRatio="xMidYMid meet">
<metadata>
Created by potrace 1.16, written by Peter Selinger 2001-2019
</metadata>
<g transform="translate(0.000000,3750.000000) scale(0.100000,-0.100000)"
fill="#FFF" stroke="none">
<path d="M0 18750 l0 -18750 3559 0 3558 0 638 1122 c1084 1908 1795 3149
1850 3233 128 192 258 315 525 495 232 156 345 244 460 360 207 206 335 427
384 661 9 40 23 148 32 239 19 199 32 237 100 280 26 16 54 30 61 30 32 0 122
57 174 110 39 41 64 77 82 124 68 168 162 548 357 1444 91 418 150 632 172
632 5 0 77 -59 161 -132 83 -72 187 -157 230 -189 88 -66 383 -219 421 -219
14 0 46 -13 71 -29 126 -80 279 -114 606 -136 129 -9 279 -25 334 -36 165 -33
375 -121 470 -196 20 -15 64 -64 98 -108 58 -75 151 -184 505 -594 163 -188
343 -423 426 -556 31 -49 86 -148 123 -220 36 -71 79 -145 97 -163 115 -123
219 -68 426 225 141 200 180 250 385 493 630 746 1020 1134 1463 1457 253 184
396 257 801 407 434 161 530 205 698 319 59 41 270 183 468 317 966 653 1796
1246 2261 1616 375 297 744 650 974 929 255 309 310 372 406 467 167 164 430
370 789 618 150 104 203 148 320 265 195 195 292 333 497 709 61 111 143 260
184 332 l74 131 36 -6 37 -6 84 -230 c46 -126 115 -329 154 -450 40 -121 91
-272 115 -336 128 -343 120 -643 -27 -1051 -187 -518 -468 -1053 -866 -1653
-146 -220 -1076 -1528 -1528 -2150 -405 -558 -754 -1019 -1097 -1452 -373
-472 -563 -742 -1099 -1570 -267 -412 -497 -755 -648 -967 -123 -173 -177
-262 -351 -576 -224 -404 -253 -449 -1113 -1705 -490 -715 -859 -1263 -944
-1405 -97 -159 -137 -231 -318 -570 -87 -162 -159 -298 -162 -302 -2 -5 4496
-8 9996 -8 l10001 0 0 18750 0 18750 -18755 0 -18755 0 0 -18750z m18259
18142 c52 -18 166 -68 255 -111 89 -43 183 -86 211 -96 72 -24 294 -59 565
-90 324 -36 408 -50 492 -84 134 -53 147 -55 266 -32 59 11 199 48 312 80 112
33 206 59 207 57 2 -1 -21 -86 -51 -189 l-53 -187 131 -2 c248 -5 320 0 399
27 141 50 376 71 459 41 20 -7 69 -37 107 -66 l71 -52 -81 -105 -81 -106 114
7 c62 4 169 19 238 34 103 21 152 26 275 26 136 0 157 -2 231 -27 50 -16 113
-49 165 -83 64 -43 107 -64 180 -85 293 -86 408 -160 485 -313 20 -41 51 -88
68 -104 17 -16 148 -112 291 -212 652 -459 897 -674 1221 -1070 186 -228 333
-399 644 -750 421 -476 472 -537 559 -678 141 -227 227 -444 373 -942 138
-473 135 -456 153 -780 8 -149 22 -293 30 -330 12 -48 40 -105 109 -220 198
-327 245 -467 233 -686 -7 -121 4 -176 64 -325 98 -245 162 -468 195 -681 24
-155 24 -468 0 -633 -11 -79 -20 -229 -25 -442 l-9 -322 -36 -56 c-52 -78 -69
-133 -64 -208 3 -34 8 -70 13 -80 5 -13 3 -16 -7 -12 -8 3 -22 -3 -32 -14 -20
-22 -21 -20 45 -306 90 -396 114 -598 106 -909 -6 -259 -28 -385 -97 -562 -36
-94 -43 -124 -50 -219 -9 -119 -31 -228 -55 -276 -22 -41 -78 -80 -227 -155
-147 -75 -215 -133 -252 -214 -21 -46 -81 -255 -101 -352 -4 -23 -34 -42 -238
-146 l-232 -120 -115 -7 c-63 -3 -122 -8 -131 -11 -12 -3 -18 -21 -22 -62 -3
-31 -24 -102 -46 -157 -55 -136 -56 -194 -4 -291 34 -62 37 -76 37 -144 -1
-62 -8 -94 -42 -189 -44 -120 -61 -216 -82 -466 -6 -71 -12 -130 -13 -130 -1
0 -33 -15 -71 -33 l-68 -33 6 -37 c15 -85 19 -219 6 -256 -23 -69 -100 -135
-247 -210 -68 -34 -111 -33 -229 5 -53 17 -98 28 -101 26 -2 -3 1 -33 8 -66
16 -85 7 -195 -21 -255 -13 -27 -47 -74 -75 -105 -63 -68 -80 -100 -101 -188
-12 -51 -15 -96 -11 -178 4 -61 9 -118 12 -126 6 -15 -30 -39 -59 -39 -8 0
-62 56 -121 125 -60 69 -112 122 -116 118 -3 -4 -38 -122 -77 -262 -39 -139
-73 -255 -76 -258 -3 -3 -37 15 -77 40 -76 49 -166 85 -178 71 -13 -14 -43
-135 -38 -148 7 -19 -22 -205 -36 -236 -20 -42 -70 -47 -195 -20 -59 12 -127
33 -151 46 -24 13 -46 24 -48 24 -7 0 5 -141 29 -325 12 -96 18 -188 15 -230
-10 -141 27 -197 141 -210 70 -9 137 -36 151 -63 20 -38 13 -104 -20 -172 -38
-80 -39 -120 -5 -188 15 -30 29 -75 32 -100 5 -40 -28 -317 -38 -328 -2 -2
-48 33 -102 77 -55 44 -100 78 -102 77 -1 -2 38 -159 87 -348 49 -190 92 -372
95 -405 6 -59 5 -60 -26 -80 -17 -11 -43 -40 -58 -65 -22 -37 -26 -55 -25
-110 1 -36 3 -137 6 -225 l4 -160 43 -92 43 -93 -36 -39 c-40 -44 -61 -105
-51 -148 3 -15 19 -68 35 -116 32 -94 48 -222 49 -387 0 -116 8 -145 75 -286
62 -131 102 -179 210 -249 93 -60 202 -163 211 -200 9 -37 -38 -126 -90 -172
-24 -21 -67 -46 -96 -56 -73 -26 -134 -89 -157 -164 -14 -46 -17 -88 -16 -208
l2 -150 -41 -70 c-23 -38 -101 -162 -175 -274 -74 -112 -132 -205 -130 -207 1
-2 45 10 97 26 52 17 101 28 108 25 15 -6 16 -61 1 -106 -7 -19 -36 -70 -65
-114 -93 -140 -99 -175 -43 -247 l29 -37 -123 -214 -124 -213 256 -27 c322
-35 320 -35 356 3 24 25 30 44 42 122 18 120 64 215 178 368 136 182 164 240
215 450 27 111 63 195 193 455 127 253 174 390 192 563 l7 62 -121 0 c-76 0
-121 4 -121 10 0 19 83 345 89 352 4 4 60 -53 125 -128 65 -74 121 -132 125
-129 3 4 56 155 116 336 61 182 115 331 120 331 5 0 20 -29 33 -63 l23 -63
-36 -240 c-51 -344 -79 -496 -132 -706 -39 -154 -47 -201 -47 -280 -1 -83 3
-102 27 -155 15 -33 42 -78 60 -100 29 -36 32 -47 32 -105 -1 -93 -31 -177
-261 -730 -142 -339 -146 -348 -214 -424 -30 -33 -66 -76 -78 -94 l-24 -33
-49 83 c-74 123 -71 120 -108 107 -23 -8 -40 -27 -66 -73 -105 -187 -270 -316
-483 -375 -58 -16 -90 -33 -151 -80 l-77 -59 1 122 c0 117 -1 123 -33 188 -39
79 -105 142 -199 188 l-63 31 -42 -19 c-24 -10 -69 -35 -100 -55 l-57 -37 35
-52 c53 -81 79 -175 78 -288 0 -137 -34 -230 -133 -365 -68 -91 -117 -193
-137 -280 -32 -138 -45 -176 -73 -207 -27 -31 -32 -32 -124 -38 -83 -4 -99 -8
-121 -29 -14 -13 -78 -98 -143 -190 -137 -192 -181 -239 -266 -281 -170 -83
-314 -53 -374 78 -49 105 -25 195 122 452 114 201 135 245 193 400 81 216 135
406 127 447 -10 57 -29 68 -162 87 -153 23 -183 18 -272 -45 -174 -122 -304
-298 -371 -504 -26 -78 -32 -85 -76 -85 -45 0 -108 -24 -159 -61 -62 -44 -121
-124 -227 -301 -117 -199 -162 -261 -242 -336 -71 -66 -181 -126 -253 -138
-73 -11 -97 -34 -147 -137 -72 -151 -159 -217 -396 -302 -133 -47 -227 -95
-393 -197 -73 -45 -197 -112 -275 -150 -172 -82 -257 -135 -337 -212 -71 -68
-88 -76 -161 -76 -59 0 -211 -35 -331 -77 l-74 -25 -77 35 c-136 62 -290 81
-455 56 -40 -6 -147 -28 -238 -50 -172 -40 -369 -61 -553 -58 -60 1 -110 -6
-191 -27 -91 -23 -131 -28 -235 -29 -115 0 -129 2 -183 27 -32 15 -84 52 -116
83 l-58 55 -64 -1 c-104 -1 -103 2 -57 -117 22 -57 39 -105 37 -107 -2 -2 -65
-8 -139 -14 -274 -22 -380 -11 -478 49 -68 42 -121 56 -317 85 -93 14 -197 33
-230 41 -133 35 -234 103 -305 206 -24 35 -53 74 -64 86 -40 45 -120 76 -251
97 -61 10 -140 52 -175 92 -17 19 -54 83 -81 141 -84 179 -123 214 -300 267
-62 19 -153 82 -197 137 -26 33 -30 49 -40 145 -6 60 -25 171 -42 248 -81 359
-80 495 5 696 132 314 431 562 746 619 48 9 71 8 127 -6 57 -15 99 -16 287
-11 239 7 414 21 484 39 70 18 133 86 150 163 19 85 60 125 130 125 41 0 70
-9 139 -44 112 -56 180 -76 262 -76 92 0 156 22 245 83 42 28 88 58 101 65 62
34 204 23 507 -39 159 -33 186 -31 249 13 40 28 168 194 168 219 0 27 -33 57
-169 153 -222 156 -337 208 -460 207 -54 0 -86 -6 -133 -27 -175 -74 -193 -78
-338 -78 -103 1 -166 7 -267 27 -72 14 -207 38 -300 52 -251 39 -594 112 -665
140 -64 26 -169 93 -175 111 -2 6 72 39 164 74 92 35 170 65 172 66 2 2 -38
82 -89 179 -50 97 -89 179 -86 182 3 3 67 21 143 40 176 45 346 54 559 29 259
-30 484 -18 842 44 94 17 250 43 345 60 479 83 1347 171 1837 187 252 8 310
-3 468 -83 132 -66 194 -113 397 -299 88 -80 192 -170 230 -200 232 -179 423
-239 681 -215 238 22 321 56 556 233 92 69 266 189 388 267 121 79 232 157
247 174 47 55 68 114 67 191 0 75 -2 80 -101 242 -155 256 -410 388 -677 353
l-85 -12 -53 30 c-79 45 -172 70 -347 92 -291 38 -390 75 -521 196 -44 40 -97
82 -118 93 -21 11 -113 42 -204 70 -174 53 -218 68 -218 74 0 3 34 31 75 63
41 32 75 61 75 65 0 3 -14 27 -31 53 -57 86 -149 137 -252 139 -34 0 -171 -5
-304 -13 -267 -14 -282 -13 -328 42 -13 16 -27 44 -31 64 -6 34 -12 38 -148
106 -251 125 -367 213 -464 351 -30 43 -60 80 -66 82 -6 2 -42 10 -81 19 -100
23 -184 68 -252 134 -69 67 -113 129 -215 307 -41 72 -98 165 -126 208 -75
114 -88 176 -53 252 23 51 79 101 151 134 43 19 76 26 148 29 88 4 96 3 155
-26 47 -23 72 -44 97 -79 83 -118 149 -173 207 -173 76 0 205 103 273 220 42
71 140 302 140 330 0 10 -21 41 -46 69 -34 38 -53 51 -74 51 -15 0 -62 16
-105 36 -139 64 -248 87 -420 88 -122 1 -169 -3 -253 -22 -121 -27 -284 -81
-437 -145 -516 -214 -480 -198 -567 -264 -31 -24 -61 -43 -67 -43 -6 0 -38 18
-72 40 -117 75 -175 61 -241 -59 -36 -65 -155 -88 -355 -72 -280 24 -556 95
-669 172 -42 28 -42 29 -45 101 -6 105 -36 158 -179 318 -144 161 -164 196
-168 305 -3 67 8 139 68 440 38 198 84 455 101 570 29 199 54 309 174 763 64
243 79 347 78 542 0 228 -15 305 -86 458 -77 165 -91 227 -91 397 0 199 27
313 148 624 99 252 136 438 136 686 0 465 -169 885 -481 1196 -157 157 -280
195 -433 134 -111 -44 -119 -44 -362 25 -284 81 -329 97 -514 185 -176 83
-271 117 -409 145 -142 28 -282 40 -485 40 -210 0 -319 -9 -621 -51 -286 -40
-546 -49 -694 -25 -246 41 -504 170 -672 335 -141 140 -167 269 -98 501 51
175 99 321 114 350 30 58 23 66 -70 88 -47 11 -113 36 -148 55 -34 19 -96 44
-137 56 -130 38 -146 48 -160 94 -7 23 -20 53 -29 67 -45 66 -54 105 -49 212
3 57 15 157 27 223 12 66 31 170 42 230 37 197 36 226 -4 346 -81 239 -99 428
-77 793 12 198 12 230 -3 311 -31 174 -117 571 -137 631 -51 153 -141 225
-300 240 -110 10 -102 1 -94 110 l7 96 -34 -7 c-77 -17 -75 -15 -82 -114 -8
-102 1 -159 37 -248 29 -70 33 -130 12 -172 -16 -30 -60 -71 -150 -140 -141
-107 -201 -232 -226 -471 -16 -148 -51 -307 -130 -584 -37 -133 -73 -260 -79
-283 l-11 -42 -48 16 c-26 9 -52 21 -58 27 -20 19 -152 369 -180 472 -35 137
-41 261 -19 421 16 114 17 163 9 453 -5 179 -8 366 -7 415 2 96 87 701 152
1078 46 268 49 275 188 419 107 112 173 199 215 282 31 61 68 190 68 236 0 46
66 160 146 255 87 102 106 135 106 180 0 42 -12 64 -61 108 l-40 36 97 94
c176 169 455 432 572 538 271 247 853 741 1149 974 253 200 262 207 295 248
38 47 46 130 22 223 -26 100 -33 94 105 94 201 0 365 43 589 155 107 53 470
264 573 332 94 63 156 147 172 237 12 60 45 70 245 71 149 1 170 4 218 25 32
14 69 41 95 70 23 26 66 60 95 75 30 16 87 65 135 114 65 67 88 99 105 146 32
85 79 145 140 178 44 24 70 30 165 37 151 12 220 37 312 115 161 136 353 233
570 290 150 39 283 54 611 70 460 23 531 34 913 140 240 67 454 116 581 134
41 6 86 13 100 15 14 2 306 3 650 2 l625 -2 94 -32z m-5559 -12197 c216 -36
434 -101 810 -244 208 -79 217 -83 265 -134 64 -68 149 -219 141 -250 -3 -12
-22 -42 -43 -66 l-37 -44 -105 6 c-72 4 -135 14 -196 33 -388 116 -547 122
-828 30 -90 -30 -132 -32 -240 -11 -118 22 -314 29 -457 16 -160 -15 -303 -38
-625 -101 -288 -57 -401 -68 -519 -51 -44 6 -81 13 -82 14 -2 2 3 27 12 57 8
30 19 107 24 170 6 63 18 138 26 166 34 111 132 193 271 228 35 9 159 30 276
47 202 29 514 82 787 135 108 20 146 23 275 19 83 -2 193 -12 245 -20z m15113
-462 c121 -58 217 -178 238 -302 10 -55 9 -64 -10 -95 -33 -53 -78 -76 -148
-76 -76 0 -161 -22 -237 -63 -160 -84 -479 -478 -616 -762 -56 -116 -115 -265
-105 -265 20 0 201 151 238 200 60 76 115 116 180 130 78 16 145 -1 280 -69
143 -72 156 -71 218 21 50 73 177 222 193 225 6 2 21 -5 33 -15 22 -17 23 -22
29 -312 8 -332 8 -326 -67 -855 -102 -722 -228 -1461 -310 -1827 -107 -475
-384 -1385 -539 -1768 -157 -389 -377 -768 -627 -1080 -99 -124 -158 -176
-245 -214 -237 -105 -604 -19 -834 197 -78 72 -103 121 -111 215 -7 86 8 163
107 572 168 690 254 1106 299 1435 27 200 27 225 1 225 -6 0 -103 -144 -119
-176 -15 -30 -57 -203 -180 -738 -114 -493 -123 -521 -219 -711 -35 -69 -36
-72 -37 -200 0 -115 -3 -136 -24 -177 -25 -52 -60 -82 -126 -107 l-43 -16 59
-73 c33 -40 59 -80 59 -89 0 -8 -11 -46 -25 -84 -33 -94 -52 -207 -65 -389
-21 -321 -51 -428 -157 -577 -24 -35 -48 -63 -53 -63 -5 0 -30 35 -55 77 -38
65 -45 86 -45 129 0 53 -2 49 86 171 9 12 20 55 26 95 5 40 16 106 23 146 17
90 13 103 -63 184 -45 49 -68 87 -104 169 -48 109 -168 449 -168 476 0 8 13
33 29 56 76 111 165 327 191 463 21 116 29 260 20 382 -5 67 -12 132 -15 145
-6 22 0 25 99 56 58 19 106 36 106 40 0 4 -11 60 -25 126 -14 66 -25 131 -25
143 0 14 18 44 41 70 112 126 117 252 14 369 -25 28 -45 57 -45 65 0 7 9 31
19 54 17 38 22 42 67 48 68 9 120 42 171 106 78 100 143 169 173 182 17 7 30
16 30 19 0 3 -47 46 -105 95 -85 71 -102 90 -88 96 10 4 88 19 173 33 85 15
156 28 158 30 2 2 -13 38 -32 80 -20 43 -36 79 -36 81 0 2 15 4 33 4 l34 0 60
153 c71 178 79 207 133 472 67 330 107 458 196 623 78 144 76 126 84 857 8
705 9 713 66 828 82 162 202 231 434 247 200 13 262 40 502 216 214 158 369
250 523 310 88 35 186 30 278 -13z m-14528 -408 c99 -26 243 -64 321 -86 77
-21 198 -50 268 -64 387 -77 452 -182 416 -670 -38 -507 -169 -949 -396 -1332
-87 -147 -162 -308 -279 -603 -65 -162 -126 -311 -136 -331 -10 -20 -41 -53
-68 -73 -96 -71 -143 -167 -156 -317 -3 -41 -11 -120 -16 -177 -13 -123 -8
-141 59 -198 26 -23 61 -65 77 -95 28 -51 30 -60 30 -164 -1 -106 -3 -115 -48
-236 -96 -260 -234 -560 -422 -919 -151 -290 -215 -532 -215 -823 0 -157 -18
-235 -130 -551 -23 -65 -39 -120 -36 -123 3 -3 25 11 49 31 24 19 70 48 103
63 l59 28 260 0 c143 0 277 4 297 9 34 7 40 5 69 -23 38 -38 38 -40 -27 -217
-59 -165 -114 -274 -166 -330 -22 -24 -87 -78 -143 -119 l-102 -74 -54 21
c-44 16 -69 19 -135 15 -69 -4 -101 -13 -210 -57 -125 -52 -132 -53 -229 -54
-70 -1 -150 8 -266 29 l-165 29 -58 328 c-32 181 -62 344 -68 364 -11 41 -51
69 -113 78 -65 10 -128 55 -156 112 -20 43 -24 68 -29 214 -5 161 -7 169 -37
231 -18 35 -47 78 -65 96 -30 29 -133 96 -162 106 -6 2 22 43 63 91 40 48 71
89 70 91 -2 2 -46 10 -98 19 -141 25 -199 56 -238 129 -25 47 -22 148 6 214
21 48 22 55 9 95 -14 42 -15 43 -71 50 -116 15 -148 53 -151 181 l-1 80 -155
66 c-85 36 -177 79 -204 95 -66 39 -130 99 -150 140 -19 40 -21 123 -4 177 17
57 -9 106 -118 220 -142 149 -194 272 -229 541 -18 137 -20 142 -85 218 -155
181 -250 400 -281 646 -26 208 6 522 82 806 12 45 70 84 158 104 67 16 165 3
351 -46 255 -67 240 -64 256 -48 8 8 24 50 35 94 25 104 50 129 124 121 l52
-5 17 156 c9 85 18 157 20 160 3 2 35 -22 72 -53 112 -96 161 -106 244 -50 29
19 59 35 69 35 36 0 149 -64 202 -115 31 -30 69 -57 84 -61 17 -4 57 3 113 20
48 14 121 31 162 37 75 10 501 116 740 183 129 37 136 41 179 112 l18 31 -46
31 c-43 29 -57 32 -226 51 -99 11 -211 23 -250 26 -38 4 -106 15 -150 25 -44
10 -195 39 -335 65 -332 62 -353 68 -401 113 -89 84 -61 131 139 229 l137 68
105 -1 c132 -1 188 -21 306 -110 254 -195 403 -186 627 34 161 158 234 275
244 391 6 69 -4 151 -18 151 -6 0 -29 -15 -52 -34 -23 -18 -52 -38 -64 -45
-51 -26 -152 -3 -216 50 -45 37 -48 70 -13 146 31 66 63 88 117 79 64 -10 146
-54 177 -93 15 -19 34 -44 42 -54 15 -19 16 -19 80 8 55 23 79 27 155 27 123
0 168 -20 355 -154 310 -223 476 -317 545 -308 l26 3 -33 65 c-55 107 -171
215 -398 368 -231 155 -388 290 -312 268 9 -2 98 -26 197 -51z m2585 -6571
c52 -58 96 -111 98 -117 1 -7 -35 -49 -81 -95 l-84 -84 -46 65 c-58 81 -97
154 -97 181 0 12 8 33 18 47 21 32 85 107 92 108 3 1 48 -47 100 -105z m1590
-15 c78 -17 397 -188 565 -303 107 -73 256 -217 314 -304 40 -59 114 -202 108
-208 -2 -2 -117 -21 -256 -43 -139 -23 -300 -50 -357 -61 -58 -11 -132 -20
-165 -20 -50 0 -64 4 -84 25 -31 30 -32 70 -6 178 l19 79 -82 37 c-44 20 -132
59 -194 87 -107 46 -112 50 -107 74 4 14 8 26 9 27 2 2 53 7 115 12 91 7 115
13 126 27 7 11 11 22 9 25 -2 4 -75 50 -161 104 -87 54 -165 104 -173 112 -13
13 -9 20 35 60 99 89 182 116 285 92z m6690 -991 c-21 -107 -59 -158 -119
-158 -27 0 -151 39 -151 48 1 9 273 182 279 177 2 -3 -2 -33 -9 -67z m-6720
-309 c15 -28 -7 -73 -81 -161 -35 -42 -66 -77 -69 -77 -9 -1 -90 163 -90 181
0 34 25 70 79 113 l55 44 48 -41 c27 -22 53 -49 58 -59z m-1688 -67 c140 -74
140 -74 133 -106 -3 -16 -8 -32 -10 -35 -6 -5 -310 26 -352 36 -17 4 -23 12
-23 32 0 53 12 73 54 92 65 29 114 25 198 -19z m917 -403 c34 -17 65 -38 69
-47 8 -23 -80 -99 -130 -113 -23 -6 -57 -8 -77 -4 -42 8 -123 50 -147 77 -17
17 -16 20 12 49 73 77 168 90 273 38z m7879 -13 c1 -2 -8 -60 -20 -130 l-23
-128 -45 7 c-25 4 -49 10 -54 15 -4 4 -1 54 9 112 24 152 18 141 78 133 29 -3
53 -8 55 -9z m-11797 -1129 c75 -50 114 -153 107 -277 -4 -66 -10 -86 -41
-141 -68 -117 -116 -223 -133 -289 -29 -115 2 -232 85 -323 23 -24 41 -47 41
-51 0 -3 -28 -6 -62 -6 -123 1 -186 53 -237 196 -17 49 -37 102 -44 117 l-12
28 -100 -80 c-122 -97 -162 -118 -242 -123 l-63 -4 0 37 c0 73 -33 245 -61
322 -66 178 -38 369 69 480 47 49 90 71 191 97 110 29 184 37 337 39 121 1
134 -1 165 -22z m11304 -47 l40 -41 -91 -89 c-50 -50 -98 -90 -107 -90 -8 0
-30 19 -48 42 l-33 41 92 89 c51 48 96 88 100 88 4 0 26 -18 47 -40z m-11025
-1340 c23 -46 26 -126 6 -173 -27 -66 -159 -159 -260 -183 l-30 -7 21 34 c11
19 60 102 108 184 115 198 114 197 126 190 5 -4 18 -24 29 -45z"/>
<path d="M25192 31204 c-21 -10 -52 -81 -52 -119 0 -40 40 -126 105 -225 49
-74 71 -98 179 -194 206 -183 374 -428 471 -691 21 -55 59 -185 85 -290 67
-266 126 -406 209 -498 36 -39 250 -212 255 -206 1 2 44 90 94 194 l91 190
-14 80 c-16 90 -88 281 -175 463 -165 345 -382 657 -644 930 -137 142 -201
192 -371 291 -95 56 -133 73 -171 76 -27 3 -55 2 -62 -1z"/>
<path d="M19015 26104 c-22 -2 -205 -10 -407 -18 -359 -14 -369 -15 -424 -40
-152 -70 -276 -193 -351 -347 -57 -119 -155 -254 -302 -419 -61 -68 -146 -180
-208 -275 -152 -230 -162 -241 -262 -288 -48 -22 -87 -41 -89 -42 -2 -2 10
-30 27 -62 l30 -60 99 -26 c150 -41 170 -38 282 34 135 87 243 200 304 316 81
155 196 242 376 286 82 20 655 92 855 108 273 22 554 -3 770 -67 50 -14 113
-33 140 -40 73 -21 257 -29 356 -15 46 7 134 26 195 42 l111 31 13 38 13 39
-51 59 c-98 113 -152 153 -225 166 -117 21 -208 89 -323 242 -130 172 -245
258 -419 315 -62 20 -93 22 -270 24 -110 2 -218 1 -240 -1z"/>
<path d="M21784 25506 c-3 -13 -4 -38 -2 -57 l3 -34 128 -21 127 -21 5 21 c2
12 7 47 10 79 l6 57 -135 0 c-134 0 -136 0 -142 -24z"/>
<path d="M22244 25432 c-49 -60 -93 -127 -116 -179 -18 -40 -22 -75 -28 -219
-6 -167 -7 -173 -38 -237 -20 -40 -50 -82 -78 -106 l-45 -40 16 -31 17 -32
106 4 c97 4 113 7 172 37 90 46 368 224 420 268 138 119 93 279 -128 455 -93
74 -179 118 -229 118 -32 0 -43 -7 -69 -38z"/>
<path d="M26301 25113 c-28 -104 -111 -462 -111 -476 0 -14 10 -11 53 15 153
92 189 159 156 283 -16 61 -71 205 -80 211 -4 2 -13 -12 -18 -33z"/>
<path d="M19070 24655 c-398 -83 -1251 -354 -1320 -420 -15 -14 -36 -45 -48
-68 -26 -53 -113 -260 -110 -262 23 -13 301 -91 379 -106 57 -11 151 -37 209
-57 99 -35 112 -37 226 -37 119 0 121 0 197 38 63 31 98 60 205 165 222 219
348 269 443 173 43 -42 56 -81 69 -208 13 -127 26 -177 63 -252 58 -119 161
-202 294 -236 67 -18 257 -20 352 -4 215 34 377 137 512 324 134 187 212 186
397 -4 l97 -101 315 -153 c321 -157 493 -237 509 -237 5 0 13 10 17 22 5 18
-13 39 -115 136 -66 62 -121 118 -121 123 0 16 22 10 235 -69 l210 -78 7 -78
c4 -43 12 -94 19 -114 l11 -35 56 6 c75 8 86 21 90 111 10 184 -107 379 -291
489 -49 28 -113 84 -202 173 -71 71 -161 153 -199 181 -130 96 -282 156 -431
171 -76 8 -84 11 -165 68 -176 124 -131 113 -775 185 -533 59 -592 68 -789
118 -180 47 -258 55 -346 36z m1055 -557 l67 -63 -69 -52 c-116 -88 -142 -88
-215 0 l-37 45 69 66 c47 45 76 66 93 66 17 0 47 -21 92 -62z"/>
<path d="M25765 24203 c-107 -143 -103 -130 -64 -164 28 -23 43 -28 88 -29 47
0 57 4 86 33 20 20 39 54 49 87 25 85 22 103 -28 144 -24 20 -46 36 -48 36 -2
0 -40 -48 -83 -107z"/>
<path d="M22881 19393 c-97 -164 -95 -157 -35 -149 98 14 154 57 154 120 0 27
-29 128 -40 140 -4 4 -40 -45 -79 -111z"/>
<path d="M18315 17280 c-49 -33 -91 -64 -93 -69 -2 -5 40 -75 94 -155 l96
-145 57 26 c31 14 77 35 104 46 26 12 47 25 47 30 0 16 -195 327 -205 327 -5
0 -50 -27 -100 -60z"/>
<path d="M23320 16645 c-20 -88 -30 -149 -24 -155 5 -4 29 -11 54 -15 l46 -7
28 129 c16 70 31 138 33 150 4 18 -1 23 -33 32 -70 20 -67 24 -104 -134z"/>
<path d="M22681 16279 c-69 -12 -129 -45 -158 -88 -18 -27 -23 -48 -23 -103 0
-83 25 -140 72 -164 44 -23 148 -16 211 15 86 42 95 99 37 223 -16 34 -30 78
-30 96 0 36 -7 38 -109 21z"/>
<path d="M22369 15763 c-131 -303 -169 -412 -169 -481 0 -44 4 -54 31 -76 22
-19 42 -26 73 -26 66 0 149 56 391 263 l39 34 -99 7 c-150 10 -195 17 -195 29
0 7 14 62 30 122 17 61 30 118 30 127 0 12 -16 22 -52 33 -28 8 -53 15 -55 15
-2 0 -13 -21 -24 -47z"/>
<path d="M23163 15667 c-73 -45 -132 -85 -133 -88 0 -5 59 -18 163 -35 51 -9
93 10 106 48 12 35 15 158 4 158 -5 -1 -67 -38 -140 -83z"/>
<path d="M27491 22381 c-68 -19 -90 -147 -42 -244 19 -39 130 -205 160 -239 4
-4 23 -3 42 2 l36 10 22 108 c40 203 21 306 -63 342 -48 21 -121 31 -155 21z"/>
<path d="M26488 22117 c-279 -402 -298 -432 -298 -470 0 -20 14 -56 36 -92 47
-79 223 -325 232 -325 11 0 69 89 91 141 39 88 52 162 61 359 11 218 17 284
32 350 16 66 55 150 90 194 34 42 34 40 -33 76 l-37 19 -174 -252z"/>
<path d="M17796 16563 c-32 -34 -53 -70 -44 -77 10 -8 320 -67 325 -62 4 3
-32 44 -78 91 -79 79 -88 85 -126 85 -34 0 -47 -6 -77 -37z"/>
</g>
</svg>
