<svg xmlns="http://www.w3.org/2000/svg" width="2480" height="3508" viewBox="0 0 2480 3508">
  <defs>
    <style>
      .cls-1 {
        fill: #fff;
        fill-rule: evenodd;
      }
    </style>
  </defs>
  <path class="cls-1" d="M1493.52,1855.74h-8.55v-1.07l3.21-12.12c0.47,0.35.95,0.71,1.42,1.07q3.57,4.275,7.13,8.55c0.24-.12.47-0.23,0.71-0.35q3.93-11.955,7.84-23.89h0.36c0.12,0.12.24,0.24,0.35,0.36,3.2,14.47-4.01,32.18-6.41,45.99-1.43,8.24,5.86,9.6,4.63,16.4-1.93,10.69-14.21,38.54-21.02,44.21-1.31-2.38-2.61-4.76-3.92-7.13-0.83.24-1.66,0.47-2.5,0.71-5.81,11.66-16.53,13.66-26.72,20.68,0.8-11.32-2.42-15.43-10.34-18.9-2.37,1.31-4.75,2.62-7.12,3.93,9.97,14.16-.21,20.69-4.63,31.37-1.76,4.25-.95,10.15-4.99,12.12l-6.77.72c-3.59,2.1-17.94,30.58-27.8,16.4-3.62-5.22.47-11.58,2.5-15.33,3.97-7.37,14.34-24.65,12.11-34.59-13.39-5.52-21.94,4.75-26.37,13.55-1.13,2.24-1.43,5.85-3.21,7.49-14.52,5.98-12.3,11.68-20.66,22.46-4.91,6.32-9.39,4.62-14.97,8.56-3.07,2.17-3.63,7.92-6.77,10.34q-9.615,4.275-19.24,8.55c-12.73,7.51-28.74,19.83-45.62,22.11-4.23.57-10.18-4.93-18.17-3.57q-9.09,1.965-18.17,3.92h-13.54c-5.17.43-11.48,4.23-18.18,2.14-3.44-1.07-5.29-3.76-7.84-5.7q-2.85.18-5.7,0.35c0.95,2.62,1.9,5.23,2.85,7.85-5.62.2-12.91,1.95-18.53,0.35-3.42-.97-5.98-3.39-9.97-4.27-6.29-1.4-12.96-.85-17.82-3.57-4.28-2.39-5.55-7.4-9.27-9.98q-6.585-2.145-13.18-4.28c-4.03-2.99-4.19-10.16-8.2-13.19-4.48-3.4-11.41-3.18-14.25-8.2-0.36-3.09-.71-6.18-1.07-9.27-2.18-10.26-5.09-22.76.36-32.09,5.18-8.88,14.05-17.68,26.37-19.25,1.54,0.35,3.08.71,4.63,1.07,5.57,1.18,24.26-.03,27.79-1.79,3.5-1.74,4.1-7.32,6.77-9.98,7.62,0.13,10.2,6.12,18.89,4.28,4.76-1.01,6.92-5.11,11.4-6.06,17.01-3.61,18.69,11.93,31-5.35-0.11-.47-0.23-0.95-0.35-1.43-2.11-3.86-15.97-12.57-22.1-12.47q-6.765,2.13-13.54,4.27c-10.41,1.85-49.64-7.61-53.45-12.12v-0.35q6.06-2.145,12.12-4.28v-0.36q-3.21-6.42-6.42-12.83h0.72c11.35-5.75,25.64.44,39.91-1.79q24.225-3.735,48.46-7.48,12.285-1.08,24.59-2.14c8.41-1.32,22.51-3.26,31-.72,20.22,6.07,28,35.18,58.08,27.1,7.89-2.12,12.66-7.63,18.53-11.77,9.61-6.76,26.02-10.53,16.4-26.02-2-3.21-3.53-6.32-6.42-8.56a24.376,24.376,0,0,0-14.61-5.35l-6.77.72c-2.61-1.19-5.23-2.38-7.84-3.57q-6.945-.885-13.9-1.78c-6.69-1.68-9.08-5.95-13.89-8.92q-8.025-2.67-16.04-5.34c0.24-.36.48-0.72,0.71-1.07,1.55-1.19,3.09-2.38,4.64-3.57-2.95-5.63-7.51-7.63-15.33-6.42-5.98.93-15.77,1.47-17.81-2.49-0.24-.83-0.48-1.67-0.72-2.5,2.5-1.07,4.99-2.14,7.49-3.21q-3.39-6.06-6.77-12.12a16.375,16.375,0,0,0-7.49,4.64q3.21,5.16,6.42,10.34h-0.36c-5.71-2.69-11.66-5.53-16.39-9.27q-3.39-4.29-6.77-8.56c-2.26-.48-4.52-0.95-6.77-1.43-5.67-2.37-9.47-8.47-12.47-13.55-4.43-7.48-13.23-20.49,1.42-23.53,12.39-2.56,10.7,9.32,19.96,9.99,6.8-3.3,12.34-11.34,13.54-19.97-12.73-20-58.47.45-69.85,8.56q-3.195-1.6-6.41-3.21c-4.81.91-4.3,5.31-8.55,6.42-11.74,3.05-27.86-2.82-34.57-7.13-0.11-14.01-15.19-13.95-12.47-28.53,2.48-13.28,4.01-27.81,7.48-41.71,2.72-10.89,5.88-21.04,7.84-33.16,2.71-16.72-9.38-22.1-6.77-37.79,1.83-11.02,6.42-18.72,8.91-28.52,5.43-21.38-2.72-41.86-11.76-53.48-3.2-4.12-9.7-11.61-17.46-9.63-2.88.73-5.2,2.92-9.26,1.78-17.14-4.81-28.68-11.92-47.75-14.97-8.58-1.37-19.14.14-26.02,1.42-17.82,3.33-35.413,1.48-46.679-6.06-4-2.68-8.593-5.49-10.334-10.34-3.55-9.87,4.353-18.75,5.345-27.09-7.023-1-12.125-4.31-18.53-6.42-0.872-4.73-4.321-7-3.207-13.91q1.782-11.4,3.563-22.81c-1.044-5.18-3.291-10.58-4.276-16.76q0.357-8.565.713-17.11c1.334-8.78-4.878-34.4-8.909-37.44-2.706-2.04-6.563-2.14-10.69-2.85q0.179-3.39.356-6.78c-1.306.36-2.613,0.72-3.919,1.07v9.27c0.57,2.18,3.2,4.62,2.138,8.2-1.576,5.29-9.757,7.53-12.116,13.19l-3.207,18.9q-3.207,11.415-6.414,22.82-2.139-.9-4.277-1.78c-1.625-7.46-5.71-13.5-7.126-21.75q0.534-13.725,1.069-27.46a195.315,195.315,0,0,1,4.276-46.7q1.068-6.78,2.138-13.55l10.69-12.48c3.082-4.35,2.768-8.83,4.989-14.62,2.05-5.34,6.764-7.93,8.909-13.54a18.2,18.2,0,0,0-3.92-5c16.781-18.24,37.057-35.69,56.659-50.98,4.215-3.29,18.709-12.37,19.959-17.11q-0.54-4.635-1.07-9.27c19.69,0.33,36.71-9.74,47.75-18.54,2.6-2.08,2.75-7,5.34-8.92,4.84-2.59,12.8.46,17.11-2.49,3.64-2.5,9.49-7.09,12.11-10.7,1.91-2.62,2.1-6.6,4.63-8.56,3.39-2.62,9.89-1.41,14.26-3.2,6.7-2.76,11.54-8.87,18.88-11.77,12.01-4.74,28.19-2.28,43.12-4.99,14.58-2.64,26.86-7.08,42.05-9.63,8.23-1.37,40.07-1.23,46.68.72q8.91,4.1,17.82,8.2,17.1,2.31,34.21,4.63c3.17,0.76,6.36,3.74,10.33,3.21q10.695-2.85,21.38-5.71v0.36q-1.95,6.6-3.92,13.19h16.75c11.44-2.53,15.37-4.46,24.95,1.79-0.36.35-.72,0.71-1.07,1.07-1.55,2.13-3.09,4.27-4.64,6.41,9.88-.11,18.22-4.52,28.16-2.14,4.87,1.17,7.6,4.4,11.4,6.06,6.46,2.84,12.63,3,17.46,7.14q3.21,4.8,6.41,9.62,11.235,8.025,22.45,16.05c17.94,13.18,31.45,29.11,45.26,46.35,12.33,15.39,27.3,27.04,35.28,47.06q5.52,18.72,11.04,37.43,0.9,11.6,1.79,23.18,4.98,8.73,9.97,17.47c2.32,5.6.54,12.8,2.14,19.25,2.25,9.07,6.81,17.37,8.91,27.45,2.18,10.46.9,23.14-.71,33.16q-0.18,9.81-.36,19.61c-1.39,4.12-4.37,6.15-2.85,12.48-0.71.24-1.43,0.48-2.14,0.71,1.61,14.88,9.04,29.27,6.06,48.13-1.18,7.49-4.07,13.45-5.35,19.61-0.95,4.65.13,8.46-1.42,12.13-2.16,5.1-10.47,6.36-14.61,9.62-4.26,3.36-5.47,11.6-6.77,17.83q-8.19,4.275-16.39,8.56-4.815.345-9.62,0.71c-0.08,5.18-2.35,7.24-3.21,11.05-1.44,6.42,3.87,7.57,2.85,13.55-1.37,8.02-4.56,16.17-4.99,26.74-1.66.83-3.33,1.66-4.99,2.5,2.16,17.2-6.72,19.28-20.31,16.4,1.49,13.91-4.13,12.45-6.77,21.75l-0.36,11.76c-0.35.24-.71,0.48-1.07,0.71-3.34-1.07-6.65-6.22-8.55-8.91-0.24.12-.47,0.24-0.71,0.36q-2.49,9.27-4.99,18.54H1470c-2.93-1.61-4.98-3.54-8.9-4.28-1.46,4.45-.94,10.72-3.21,14.97h-0.71c-4.42,1.24-9.63-1.5-12.83-2.85q1.065,12.66,2.14,25.31c1.78,3.04,9.06,1.09,10.33,4.64,1.54,4.31-2.67,6.33-2.5,9.63q1.26,2.85,2.5,5.7-0.72,6.24-1.43,12.48-3.735-2.85-7.48-5.71c2.12,9.65,6.44,18.47,6.77,29.24-8.63,3.74-2.24,21.4-.71,27.45-5.39,4.08-1.45,9.28-.36,14.98,2.03,10.6.37,17.51,5.35,24.24,3.47,4.69,9.7,6.1,12.83,11.41-1.48,7.69-8.68,6.38-11.76,11.77-2.52,4.38.51,9.6-1.07,14.97q-6.24,9.81-12.47,19.61h0.35c2.38-.71,4.75-1.43,7.13-2.14,0.12,0.12.24,0.24,0.35,0.36-0.01,5.58-3.27,9.3-5.7,12.83,0.57,2.65,2.5,4.26,1.78,5.71q-4.1,7.3-8.19,14.62c7.38,0.21,17.58,3.68,22.81,0,2-11.33,6.8-15.01,11.4-22.82,2.31-3.94,2.26-8.81,3.92-13.55C1484.41,1879.02,1492.84,1871.01,1493.52,1855.74Zm16.75-555.48c-4.61,5.12.94,12.7,4.28,16.4,7.03,7.79,14.67,13.33,19.24,23.89,6.56,15.16,5.95,32.64,21.02,39.22q3.21-7.14,6.42-14.26c-0.1-17.36-23.38-45.67-33.14-55.27C1524.05,1306.27,1517.64,1300.47,1510.27,1300.26Zm-219.15,181.83c-9.82,3.77-25.03-1.68-33.14,3.21-6.99,4.21-8.56,10.54-13.19,17.11l-12.82,14.98q-4.455,6.6-8.91,13.19l-6.06,2.85c0.71,1.43,1.42,2.85,2.14,4.28,26.04,4.44,18.59-17.78,39.55-22.46,9.29-2.08,31-5.24,41.69-3.57,8.59,1.35,15.49,3.69,23.17,5,7.93,1.35,14.12-1.81,19.95-2.86,0.24-1.07.48-2.14,0.71-3.21l-6.77-6.77c-3.47-2.05-7.4-1.98-10.33-4.28q-3.21-4.275-6.41-8.56C1314.61,1483.34,1305.18,1482.08,1291.12,1482.09Zm107.26,20.68c-2.7-.13-8.18-0.64-9.62.71v3.57c2.97,0.47,5.94.95,8.91,1.42v-0.71C1397.9,1506.1,1398.14,1504.43,1398.38,1502.77Zm7.48,2.14-5.7,8.91q-0.18,4.11-.36,8.2c-0.07,6.78-2.54,8.69-5.7,12.13,0.48,0.71.95,1.42,1.43,2.13,9.08,0.31,24.91-8.34,27.08-13.9C1425.56,1514.83,1412.55,1504.87,1405.86,1504.91Zm143.97,11.41q-2.145,9.45-4.28,18.89C1552.23,1531.57,1557.34,1523.82,1549.83,1516.32Zm-499.24,15.33c19.21-.44,55.64,8.62,57.72,23.53l-2.85,3.57c-10.21.02-15.84-3.17-24.58-4.64-7.53-1.26-13.03,2.14-18.18,3.21-7.57,1.57-16.01-2.5-24.59-1.07-9.27,1.55-33.14,8.87-41.688,4.64,2.09-6.29.927-15.64,5.7-19.26C1012.48,1533.79,1037.64,1537.34,1050.59,1531.65Zm243.38,1.78c-20.42,8.59-48.26,4.78-54.88,27.46,9.08,1.11,22.15,9.31,32.43,7.13,10.34-2.2,13.85-17.52,26.01-14.62,4.46,6.32,3.17,18.08,9.27,22.82,9.86,7.65,27.77,2.22,34.21-4.28,2.67-2.71,5.39-9.93,10.33-8.92,5.45,1.21,6.53,5.94,10.34,8.56q14.955,6.96,29.93,13.91v-0.72c0.12-.35.24-0.71,0.35-1.07q-4.275-4.1-8.55-8.2v-0.35q7.845,2.67,15.68,5.34c0.48,2.74.95,5.47,1.43,8.2h2.49c0.83-.35,1.66-0.71,2.5-1.06,1.93-14.8-7.77-16.73-14.61-23.54-6.02-5.98-11-12.19-20.32-14.97-2.49-.24-4.99-0.48-7.48-0.71q-4.815-3.21-9.62-6.42-19.065-2.145-38.13-4.28Q1304.655,1535.565,1293.97,1533.43Zm239.11,12.84-6.06,8.55,0.36,0.72c0.71,0.47,1.42.95,2.13,1.42,1.19-.12,2.38-0.23,3.57-0.35C1537.58,1554.75,1537.48,1547.98,1533.08,1546.27Zm62.36,1.42c7.97-.33,19.3,6.96,16.39,14.62-1.92,4.32-13.34,4.66-17.46,7.85-10.3,7.97-17.3,21.45-22.45,34.58,15.62-7.28,6.64-17.02,29.57-7.13,4.15-2.94,6.28-7.69,9.98-11.05,0.72,0.47,1.43.95,2.14,1.42a297.368,297.368,0,0,1-6.06,65.6c-7.96,40-14.37,75.41-28.5,108.03-5.56,12.83-18.38,39.44-32.08,42.79-12.78,3.12-32.92-6.86-30.64-19.61q5.16-21.75,10.33-43.5,2.67-16.035,5.35-32.09c-0.36-.12-0.71-0.23-1.07-0.35-0.12.23-.24,0.47-0.36,0.71-8.75,8.49-9.71,34.47-13.9,48.13q-2.67,5.535-5.34,11.05c-2.77,7.52,2.35,13.94-7.13,15.69,1.43,1.78,2.85,3.57,4.28,5.35q-1.425,5.52-2.85,11.05c-2.2,12.26-.18,22.9-7.84,29.24-0.24-.12-0.48-0.24-0.71-0.36-0.95-1.66-1.9-3.33-2.85-4.99-1.48-5.4,6.69-12.24,4.98-19.61-0.81-2.89-2.87-3.3-4.27-5.35-3.58-5.22-6.86-14.81-7.84-21.75,6.27-9.92,10.07-21.91,7.84-37.79,2.49-.71,4.99-1.42,7.48-2.14q-0.885-5.52-1.78-11.05c6.46-4.6,4.42-11.28.36-16.4,0.35-1.19.71-2.38,1.06-3.57,8.02-2.31,9.59-7.16,15.33-11.41-0.36-.47-0.72-0.95-1.07-1.42-2.14-1.78-4.28-3.57-6.42-5.35h0.72q5.88-1.245,11.76-2.5c-0.83-1.78-1.67-3.56-2.5-5.34,0.86-.39,1.88-0.45,2.5-1.07,5.73-9.37,5.96-22.99,9.62-34.59,2.19-6.95,5.78-11.19,7.12-19.61,2.66-16.59-4.35-40.08,3.21-51.69,4.83-7.43,12.99-4.4,22.1-7.85,6.94-2.63,11.85-8.38,17.81-12.12Q1588.85,1550.9,1595.44,1547.69Zm-270.11,3.93c3.37,0.4,4.33,2.62,6.41,4.27-0.12.24-.24,0.48-0.35,0.72q-3.21,1.95-6.42,3.92c-2.09-1.09-2.92-2.56-4.63-3.92,1.42-1.55,2.85-3.09,4.28-4.64C1324.85,1551.85,1325.09,1551.73,1325.33,1551.62Zm-289.35,276.31c-0.38-7.84-1.9-20.76-5.35-26.74-14.71-4.05-5.64-8.13-10.33-19.97-1.74-4.38-5.49-5.52-8.91-8.2q2.49-3.03,4.99-6.06v-0.35c-19.18-1.32-8.92-8.54-12.12-17.83a10.2,10.2,0,0,1-6.413-1.78c-0.461-2.1-.434-6.82-1.781-7.85-5.321-3.34-13.208-4.2-16.749-9.27-2.079-2.97.409-6.43-.356-9.62-1.025-4.3-6.4-6.8-8.552-10.34-3.34-5.5-2.122-12.19-4.633-19.26-1.929-5.42-7.947-9.91-10.334-16.04-4.663-11.97-1.627-28.88,1.07-40.29,11.276-6.04,20.431,3.5,27.438.71,0.488-2.81.922-5.99,3.207-7.13h3.92q0.713-5.7,1.425-11.41c0.713,0.72,1.426,1.43,2.138,2.14,2.455,1.17,3.073,2.63,6.77,2.86,1.93-1.02,2.74-2.14,5.35-2.5,3.19,2.09,6.96,5.94,11.04,6.42,11.06-3.99,36.45-5.12,41.7-13.91h-0.72c-6.39-6.98-46.36-3.29-50.95-12.83v-1.78c2.14-4.33,12.1-8.77,19.24-6.78,6.49,1.82,9.42,7.72,16.75,8.91,10.31,1.68,21.69-15.13,20.66-25.67-6.51,2.29-6.59,5.2-13.54,0-0.23-12.52,10.13-4.29,13.54-1.07,17.95-8.38,24.87,13.66,40.63,14.62-5.3-12.73-19.45-14.88-27.09-24.96,0.12-.11.24-0.23,0.36-0.35,9.78,3.05,37.38,6.72,41.69,13.9,3.1,5.15,1.89,16.73.72,23.18-3.98,21.77-8.94,32.13-17.11,48.13q-5.34,13.185-10.69,26.38c-2.69,5.31-7.15,6.06-8.55,13.91-0.24,3.68-.48,7.37-0.71,11.05,1.6,5.21,8.76,6.64,6.05,16.4-4.81,17.38-15.3,30.98-21.38,47.06-2.8,7.42-1.07,16.53-3.2,25.67q-2.85,8.745-5.7,17.47h0.35c5.99-4.39,19.3-6.05,29.22-4.63,0.48,0.71.95,1.43,1.43,2.14-1.95,11.81-8.2,19.61-16.75,24.96-7.86-3.52-13.56,1.65-20.31,2.85Q1044.71,1828.99,1035.98,1827.93Zm556.61-213.21c-7.17,4.26.23,14.58,3.92,17.83,0.83-.24,1.66-0.48,2.49-0.71,0.67-5.45,1.89-10.41,0-15.34A17.776,17.776,0,0,0,1592.59,1614.72Zm-30.29.71c-3.91,6.98-16.14,18.57-16.75,26.74,1.92,4.1,6.04,11.87,9.98,13.91q2.13-4.275,4.27-8.56,0.72-10.335,1.43-20.68c0.88-3.95,3.16-6.51,4.63-9.62C1564.67,1616.62,1563.48,1616.03,1562.3,1615.43ZM1430.09,1717.4l-5.34,9.63h1.42c2.16-.59,3.9-0.82,4.99-2.5C1432.53,1722.58,1431.46,1718.8,1430.09,1717.4Zm-256.21,76.66q3.75,3.915,7.48,7.84v0.71q-2.85,2.865-5.7,5.71c-0.35-.24-0.71-0.48-1.07-0.71-1.38-3.26-3.84-4.55-4.27-8.92C1171.51,1797.15,1172.69,1795.6,1173.88,1794.06Zm57.02,3.92c15.02,0.36,34.16,17.95,38.84,29.59-6.99.7-24.03,6.19-29.93,3.92-3.47-1.73-.65-7.45-0.72-9.98-3.61-.96-13.31-4.3-13.18-7.84,3.4-.03,7.27-0.38,9.26-1.79-0.23-.35-0.47-0.71-0.71-1.06q-5.88-3.75-11.76-7.49c0.59-.72,1.19-1.43,1.78-2.14Zm213.45,16.4q-1.08,5.355-2.14,10.7c0.12,0.12.24,0.23,0.36,0.35l3.56,0.36q1.065-5.355,2.14-10.7h-0.72C1446.49,1814.86,1445.42,1814.62,1444.35,1814.38Zm-196.71,6.77c-1.22,1.45-2.29,2.05-2.85,4.28q5.88,1.08,11.76,2.14c-0.12-.35-0.23-0.71-0.35-1.07q-2.85-2.67-5.7-5.35h-2.86Zm225.21,9.99c0.94,2.35-.71,6.52-2.49,7.48l-2.49.72c-1.55-.6-3.09-1.19-4.64-1.78v-0.36Q1468.045,1834.17,1472.85,1831.14Zm-48.46,1.07c-8.48-.11-13.26,5.6-8.55,12.83,3.86,1.17,6.96.16,9.98-1.07,0.35-1.19.71-2.37,1.07-3.56C1425.81,1837.54,1424.56,1835.96,1424.39,1832.21Zm-194.92,8.91a13.259,13.259,0,0,1,4.28,4.28c-1.4,3.31-3.89,4.86-5.35,7.84h-0.71c-0.93-2.84-2.49-3.97-2.85-7.48C1226.31,1844.03,1227.97,1842.76,1229.47,1841.12Zm-62,4.64c5.39-.02,6.93,2.48,10.69,3.92l-0.36,2.49q-6.765-.7-13.54-1.42v-2.14c0.24-.6.48-1.19,0.71-1.78C1165.8,1846.47,1166.64,1846.11,1167.47,1845.76Zm242.67,3.56c-2.39,5.09-9.37,16.11-5.35,22.11,0.24,0.11.48,0.23,0.72,0.35,6.88-.01,13.58-6.6,16.74-10.69l-10.33-.72v-1.07c0.71-2.97,1.43-5.94,2.14-8.91h-0.71C1412.28,1850.03,1411.21,1849.68,1410.14,1849.32Zm32.07,2.14-9.27,5.7v0.72c3.22,0.4,7.42,2.15,9.27-.36C1443.03,1856.26,1443.46,1852.65,1442.21,1851.46Zm-242.67,8.91c4.31-.17,6.96.71,8.91,2.86v0.71c-3.96,3.25-9.35,5.07-13.19,0l2.14-2.5C1198.11,1861.09,1198.83,1860.73,1199.54,1860.37Zm285.79,10.7c-1.31-.24-2.62-0.48-3.92-0.71,0.47-2.97.95-5.95,1.42-8.92h1.78c0.72,0.12,1.43.24,2.14,0.36C1486.28,1864.89,1485.8,1867.98,1485.33,1871.07Zm26.37,27.1c0.95,0.23,1.9.47,2.85,0.71,3.27,17.7,19.26,37.4,15.32,59.18-7.59,42-39.99,80.52-61.29,110.53-44.71,62.98-92.93,122.54-134.34,188.6q-8.385,14.985-16.75,29.95-28.335,41.355-56.66,82.72-8.73,14.61-17.46,29.24-3.75,6.945-7.48,13.9H866q44.538-78.255,89.086-156.52c10.766-15.23,30.517-21.45,41.336-36.72,3.918-5.54,6.368-12.38,7.838-20.32q0.54-5.715,1.07-11.41c2.24-5.42,11.23-5.48,13.9-11.41,4.56-10.14,5.63-22.31,8.55-33.87,3.34-13.2,7.26-28.15,9.98-41,4.89,1.53,8.62,7.38,12.47,10.34,6.61,5.07,16.85,10.15,25.3,12.83,16.22,5.15,36.86.3,46.33,11.77,11.35,13.76,24.63,26.9,34.2,42.07,3.29,5.2,5.51,16.54,13.19,17.11,8.61-3.72,18.92-21.62,24.94-29.23,15.18-19.2,33.31-38.22,53.45-52.41,13.94-9.83,33.99-12.82,48.82-22.11,40.61-25.43,79.48-54.89,116.17-84.5,12.54-10.12,20.26-25.23,32.07-36.01,13.15-11.98,33.39-21.66,44.19-35.3C1497.71,1925.18,1505.06,1911.24,1511.7,1898.17Zm-456.12,3.2c26.32-.37,9.75,16.67,7.83,27.46-1.04,5.86,2.88,8.89,4.99,11.76v0.36h-4.27c-5.19-2.11-6.62-6.54-8.2-12.12-5.31,3.08-6.84,6.05-14.61,7.48-0.2-11.32-8.18-24.98,1.78-31.73C1046.46,1902.31,1051.41,1903.02,1055.58,1901.37Zm411.57,1.07c1.07,0.95,2.14,1.91,3.21,2.86-1.65,2.28-4.39,5.65-7.48,6.41-3.06-4.2-.02-4.64,2.85-8.2C1466.2,1903.16,1466.68,1902.8,1467.15,1902.44Zm-392.33,47.42c7.3,6.04-2.89,13.82-8.55,14.62,0.11-.36.23-0.71,0.35-1.07Q1070.715,1956.645,1074.82,1949.86Z"/>
</svg>
